<svg xmlns="http://www.w3.org/2000/svg" viewBox="0 0 1200 900" role="img" aria-label="Mocha"><defs><linearGradient id="bg" x1="0" y1="0" x2="1" y2="1"><stop offset="0%" stop-color="#ead3bf"/><stop offset="100%" stop-color="#fff8ed"/></linearGradient><linearGradient id="cup" x1="0" y1="0" x2="0" y2="1"><stop offset="0%" stop-color="#fff9f1"/><stop offset="100%" stop-color="#f0e0cb"/></linearGradient></defs><rect width="1200" height="900" fill="url(#bg)"/><circle cx="980" cy="140" r="110" fill="#ffffff" opacity="0.25"/><circle cx="180" cy="170" r="70" fill="#ffffff" opacity="0.18"/><ellipse cx="600" cy="640" rx="270" ry="60" fill="#3b2416" opacity="0.14"/><rect x="360" y="340" width="420" height="210" rx="38" fill="url(#cup)" stroke="#d7c2aa" stroke-width="8"/><path d="M780 390h72c52 0 88 36 88 80s-36 80-88 80h-72" fill="none" stroke="#d7c2aa" stroke-width="26" stroke-linecap="round"/><ellipse cx="570" cy="340" rx="208" ry="34" fill="#f7efe6" stroke="#d7c2aa" stroke-width="8"/><ellipse cx="570" cy="340" rx="190" ry="23" fill="#8f5a40" opacity="0.95"/><path d="M510 250c-16-30 2-56 18-76" fill="none" stroke="#ffffff" stroke-width="12" stroke-linecap="round" opacity="0.75"/><path d="M590 250c-16-30 2-56 18-76" fill="none" stroke="#ffffff" stroke-width="12" stroke-linecap="round" opacity="0.75"/><path d="M670 250c-16-30 2-56 18-76" fill="none" stroke="#ffffff" stroke-width="12" stroke-linecap="round" opacity="0.75"/><text x="600" y="715" text-anchor="middle" font-family="Inter, Arial, sans-serif" font-size="74" font-weight="800" fill="#3b2416">Mocha</text><text x="600" y="780" text-anchor="middle" font-family="Inter, Arial, sans-serif" font-size="28" font-weight="600" fill="#6f6258">The Coffee House Acton</text></svg>